<?xml version="1.0" standalone="no"?>
<!DOCTYPE svg PUBLIC "-//W3C//DTD SVG 20010904//EN"
 "http://www.w3.org/TR/2001/REC-SVG-20010904/DTD/svg10.dtd">
<svg version="1.0" xmlns="http://www.w3.org/2000/svg"
 width="512.000000pt" height="512.000000pt" viewBox="0 0 512.000000 512.000000"
 preserveAspectRatio="xMidYMid meet">
<metadata>
Created by potrace 1.11, written by Peter Selinger 2001-2013
</metadata>
<g transform="translate(0.000000,512.000000) scale(0.100000,-0.100000)"
fill="#000000" stroke="none">
<path d="M715 4678 c-156 -28 -302 -153 -366 -313 l-24 -60 -2 -1250 c-2
-1020 0 -1261 11 -1307 43 -181 195 -330 376 -367 38 -8 315 -12 900 -14 965
-2 861 8 1005 -101 44 -33 87 -66 95 -73 8 -7 184 -143 390 -303 206 -160 382
-296 390 -303 49 -40 191 -147 207 -155 26 -14 84 -5 105 16 10 10 22 31 26
47 4 17 7 219 7 450 l-1 420 290 6 c160 3 305 9 321 13 67 17 161 73 219 131
70 69 119 159 135 249 8 41 11 448 11 1274 0 1075 -2 1221 -16 1276 -47 183
-192 324 -371 361 -57 11 -371 14 -1863 13 -1018 -1 -1817 -5 -1845 -10z"/>
</g>
</svg>
